HIERARCHY
ROOT root
{
	OFFSET 0.000000 0.054209 0.736571
	CHANNELS 6 Xposition Yposition Zposition Xrotation Yrotation Zrotation
	JOINT spine04
	{
		OFFSET 0.000000 -0.030951 0.078754
		CHANNELS 6 Xposition Yposition Zposition Xrotation Yrotation Zrotation
		JOINT spine02
		{
			OFFSET 0.000000 -0.000238 0.104623
			CHANNELS 6 Xposition Yposition Zposition Xrotation Yrotation Zrotation
			JOINT spine01
			{
				OFFSET 0.000000 0.017421 0.109292
				CHANNELS 3 Xrotation Yrotation Zrotation
				JOINT neck01
				{
					OFFSET 0.000000 -0.049753 0.167208
					CHANNELS 6 Xposition Yposition Zposition Xrotation Yrotation Zrotation
					JOINT neck02
					{
						OFFSET 0.000000 0.005512 0.021216
						CHANNELS 3 Xrotation Yrotation Zrotation
						JOINT jaw
						{
							OFFSET 0.000000 -0.043572 0.063270
							CHANNELS 6 Xposition Yposition Zposition Xrotation Yrotation Zrotation
							End Site
							{
								OFFSET 0.000000 -0.008974 0.006557
							}
						}
						JOINT eye.L
						{
							OFFSET 0.023674 -0.098122 0.090003
							CHANNELS 3 Xrotation Yrotation Zrotation
							End Site
							{
								OFFSET 0.001819 -0.030370 -0.004421
							}
						}
						JOINT orbicularis03.L
						{
							OFFSET 0.023674 -0.098122 0.090003
							CHANNELS 3 Xrotation Yrotation Zrotation
							End Site
							{
								OFFSET 0.001761 -0.029014 0.005250
							}
						}
						JOINT eye.R
						{
							OFFSET -0.023674 -0.098122 0.090003
							CHANNELS 3 Xrotation Yrotation Zrotation
							End Site
							{
								OFFSET -0.001819 -0.030370 -0.004420
							}
						}
						JOINT orbicularis03.R
						{
							OFFSET -0.023674 -0.098122 0.090003
							CHANNELS 3 Xrotation Yrotation Zrotation
							End Site
							{
								OFFSET -0.001761 -0.029014 0.005250
							}
						}
						End Site
						{
							OFFSET 0.000000 0.005512 0.021217
						}
					}
				}
				JOINT clavicle.R
				{
					OFFSET -0.018367 -0.058465 0.107155
					CHANNELS 6 Xposition Yposition Zposition Xrotation Yrotation Zrotation
					JOINT upperarm01.R
					{
						OFFSET -0.132020 0.003642 -0.024313
						CHANNELS 6 Xposition Yposition Zposition Xrotation Yrotation Zrotation
						JOINT lowerarm01.R
						{
							OFFSET -0.133638 0.001770 -0.153088
							CHANNELS 6 Xposition Yposition Zposition Xrotation Yrotation Zrotation
							JOINT wrist.R
							{
								OFFSET -0.108575 -0.154815 -0.103768
								CHANNELS 6 Xposition Yposition Zposition Xrotation Yrotation Zrotation
								JOINT finger2-1.R
								{
									OFFSET -0.024321 -0.084906 -0.032804
									CHANNELS 3 Xrotation Yrotation Zrotation
									JOINT finger2-2.R
									{
										OFFSET -0.002927 -0.018838 -0.012653
										CHANNELS 3 Xrotation Yrotation Zrotation
										JOINT finger2-3.R
										{
											OFFSET 0.000460 -0.015088 -0.013862
											CHANNELS 3 Xrotation Yrotation Zrotation
											End Site
											{
												OFFSET 0.003042 -0.016084 -0.016987
											}
										}
									}
								}
								JOINT finger3-1.R
								{
									OFFSET -0.038828 -0.069770 -0.043127
									CHANNELS 3 Xrotation Yrotation Zrotation
									JOINT finger3-2.R
									{
										OFFSET -0.006387 -0.018854 -0.022184
										CHANNELS 3 Xrotation Yrotation Zrotation
										JOINT finger3-3.R
										{
											OFFSET -0.002379 -0.015757 -0.018305
											CHANNELS 3 Xrotation Yrotation Zrotation
											End Site
											{
												OFFSET 0.000156 -0.013802 -0.019326
											}
										}
									}
								}
								JOINT finger4-1.R
								{
									OFFSET -0.045586 -0.054771 -0.050312
									CHANNELS 3 Xrotation Yrotation Zrotation
									JOINT finger4-2.R
									{
										OFFSET -0.008217 -0.013209 -0.021152
										CHANNELS 3 Xrotation Yrotation Zrotation
										JOINT finger4-3.R
										{
											OFFSET -0.003838 -0.011895 -0.018031
											CHANNELS 3 Xrotation Yrotation Zrotation
											End Site
											{
												OFFSET -0.002024 -0.010563 -0.020894
											}
										}
									}
								}
								JOINT finger5-1.R
								{
									OFFSET -0.046820 -0.037780 -0.058682
									CHANNELS 3 Xrotation Yrotation Zrotation
									JOINT finger5-2.R
									{
										OFFSET -0.005233 -0.007322 -0.016539
										CHANNELS 3 Xrotation Yrotation Zrotation
										JOINT finger5-3.R
										{
											OFFSET -0.001524 -0.005483 -0.012548
											CHANNELS 3 Xrotation Yrotation Zrotation
											End Site
											{
												OFFSET -0.002248 -0.006725 -0.016024
											}
										}
									}
								}
								JOINT finger1-1.R
								{
									OFFSET -0.000927 -0.039280 -0.005363
									CHANNELS 3 Xrotation Yrotation Zrotation
									JOINT finger1-2.R
									{
										OFFSET 0.018386 -0.018805 -0.006895
										CHANNELS 3 Xrotation Yrotation Zrotation
										JOINT finger1-3.R
										{
											OFFSET 0.010991 -0.028095 -0.011249
											CHANNELS 3 Xrotation Yrotation Zrotation
											End Site
											{
												OFFSET 0.004840 -0.019091 -0.014527
											}
										}
									}
								}
							}
						}
					}
				}
				JOINT clavicle.L
				{
					OFFSET 0.018367 -0.058464 0.107155
					CHANNELS 6 Xposition Yposition Zposition Xrotation Yrotation Zrotation
					JOINT upperarm01.L
					{
						OFFSET 0.132020 0.003642 -0.024313
						CHANNELS 6 Xposition Yposition Zposition Xrotation Yrotation Zrotation
						JOINT lowerarm01.L
						{
							OFFSET 0.133638 0.001770 -0.153088
							CHANNELS 6 Xposition Yposition Zposition Xrotation Yrotation Zrotation
							JOINT wrist.L
							{
								OFFSET 0.108574 -0.154815 -0.103768
								CHANNELS 6 Xposition Yposition Zposition Xrotation Yrotation Zrotation
								JOINT finger2-1.L
								{
									OFFSET 0.024321 -0.084906 -0.032804
									CHANNELS 3 Xrotation Yrotation Zrotation
									JOINT finger2-2.L
									{
										OFFSET 0.002927 -0.018838 -0.012653
										CHANNELS 3 Xrotation Yrotation Zrotation
										JOINT finger2-3.L
										{
											OFFSET -0.000460 -0.015088 -0.013862
											CHANNELS 3 Xrotation Yrotation Zrotation
											End Site
											{
												OFFSET -0.003042 -0.016083 -0.016987
											}
										}
									}
								}
								JOINT finger3-1.L
								{
									OFFSET 0.038828 -0.069770 -0.043127
									CHANNELS 3 Xrotation Yrotation Zrotation
									JOINT finger3-2.L
									{
										OFFSET 0.006387 -0.018854 -0.022184
										CHANNELS 3 Xrotation Yrotation Zrotation
										JOINT finger3-3.L
										{
											OFFSET 0.002379 -0.015757 -0.018305
											CHANNELS 3 Xrotation Yrotation Zrotation
											End Site
											{
												OFFSET -0.000156 -0.013802 -0.019326
											}
										}
									}
								}
								JOINT finger4-1.L
								{
									OFFSET 0.045586 -0.054771 -0.050312
									CHANNELS 3 Xrotation Yrotation Zrotation
									JOINT finger4-2.L
									{
										OFFSET 0.008217 -0.013209 -0.021152
										CHANNELS 3 Xrotation Yrotation Zrotation
										JOINT finger4-3.L
										{
											OFFSET 0.003838 -0.011894 -0.018031
											CHANNELS 3 Xrotation Yrotation Zrotation
											End Site
											{
												OFFSET 0.002024 -0.010563 -0.020894
											}
										}
									}
								}
								JOINT finger5-1.L
								{
									OFFSET 0.046820 -0.037780 -0.058682
									CHANNELS 3 Xrotation Yrotation Zrotation
									JOINT finger5-2.L
									{
										OFFSET 0.005233 -0.007322 -0.016539
										CHANNELS 3 Xrotation Yrotation Zrotation
										JOINT finger5-3.L
										{
											OFFSET 0.001524 -0.005484 -0.012548
											CHANNELS 3 Xrotation Yrotation Zrotation
											End Site
											{
												OFFSET 0.002248 -0.006725 -0.016024
											}
										}
									}
								}
								JOINT finger1-1.L
								{
									OFFSET 0.000927 -0.039280 -0.005363
									CHANNELS 3 Xrotation Yrotation Zrotation
									JOINT finger1-2.L
									{
										OFFSET -0.018386 -0.018805 -0.006894
										CHANNELS 3 Xrotation Yrotation Zrotation
										JOINT finger1-3.L
										{
											OFFSET -0.010991 -0.028095 -0.011249
											CHANNELS 3 Xrotation Yrotation Zrotation
											End Site
											{
												OFFSET -0.004839 -0.019091 -0.014527
											}
										}
									}
								}
							}
						}
					}
				}
			}
		}
	}
	JOINT upperleg01.R
	{
		OFFSET -0.087495 -0.048056 0.004242
		CHANNELS 6 Xposition Yposition Zposition Xrotation Yrotation Zrotation
		JOINT lowerleg01.R
		{
			OFFSET -0.034522 -0.027831 -0.333803
			CHANNELS 6 Xposition Yposition Zposition Xrotation Yrotation Zrotation
			JOINT foot.R
			{
				OFFSET -0.037458 0.009412 -0.349633
				CHANNELS 3 Xrotation Yrotation Zrotation
				JOINT toe1-1.R
				{
					OFFSET -0.003290 -0.101211 -0.050981
					CHANNELS 6 Xposition Yposition Zposition Xrotation Yrotation Zrotation
					End Site
					{
						OFFSET 0.000524 -0.066142 0.003009
					}
				}
			}
		}
	}
	JOINT upperleg01.L
	{
		OFFSET 0.087495 -0.048056 0.004242
		CHANNELS 6 Xposition Yposition Zposition Xrotation Yrotation Zrotation
		JOINT lowerleg01.L
		{
			OFFSET 0.034522 -0.027831 -0.333803
			CHANNELS 6 Xposition Yposition Zposition Xrotation Yrotation Zrotation
			JOINT foot.L
			{
				OFFSET 0.037458 0.009412 -0.349633
				CHANNELS 3 Xrotation Yrotation Zrotation
				JOINT toe1-1.L
				{
					OFFSET 0.003290 -0.101211 -0.050981
					CHANNELS 6 Xposition Yposition Zposition Xrotation Yrotation Zrotation
					End Site
					{
						OFFSET -0.000524 -0.066142 0.003009
					}
				}
			}
		}
	}
}
MOTION
Frames: 5
Frame Time:	0.016667
0 0.0542 0.7366 0 0 0 0 -0.0506 0.0788 0 0 0 0 -0.0232 0.1046 0 0 0 0 0 0 0 -0.0498 0.1672 0 0 0 0 0 0 0 -0.0436 0.0633 0 0 0 0 0 0 0 0 0 0 0 0 0 0 0 -0.0184 -0.0585 0.1072 0 0 0 -0.1356 -0.0037 -0.0169 0 0 0 -0.1336 0.0018 -0.1531 0 0 0 -0.1086 -0.1548 -0.1038 0 0 0 0 0 0 0 0 0 0 0 0 0 0 0 0 0 0 0 0 0 0 0 0 0 0 0 0 0 0 0 0 0 0 0 0 0 0 0 0 0 0 0 0 0 0 0 0 0.0184 -0.0585 0.1072 0 0 0 0.1356 -0.0037 -0.0169 0 0 0 0.1336 0.0018 -0.1531 0 0 0 0.1086 -0.1548 -0.1038 0 0 0 0 0 0 0 0 0 0 0 0 0 0 0 0 0 0 0 0 0 0 0 0 0 0 0 0 0 0 0 0 0 0 0 0 0 0 0 0 0 0 0 0 0 0 0 0 -0.0875 -0.0481 0.0042 0 0 0 -0.0345 -0.0278 -0.3338 0 0 0 0 0 0 -0.0033 -0.1012 -0.051 0 0 0 0.0875 -0.0481 0.0042 0 0 0 0.0345 -0.0278 -0.3338 0 0 0 0 0 0 0.0033 -0.1012 -0.051 0 0 0 
0.1415 -0.0814 0.7406 4.3531 -0.9691 5.2216 0.0001 -0.0312 0.0787 -0.1404 -0.1478 -0.3881 0.0002 -0.001 0.1056 1.7486 0.3542 -0.4202 0 0 0 0 -0.0488 0.1665 15.8494 -0.5592 -1.7198 -24.6972 -1.9925 -1.1005 0 -0.0436 0.0633 -0.0001 0 0 2.0402 0.1041 5.8389 0 0 0 1.9846 0.1133 6.5379 0 0 0 -0.0184 -0.0577 0.1066 0.5883 -4.6151 -3.4913 -0.1356 -0.0037 -0.0169 27.4425 -15.3091 8.0927 -0.1336 0.0018 -0.1531 -1.0039 1.8866 23.4067 -0.1086 -0.1548 -0.1038 2.6965 30.6493 -15.3039 2.889 -8.3198 -9.4501 8.1912 -8.2992 4.1252 13.4847 -10.3399 7.8048 -3.9244 -5.8423 2.8867 14.5745 -18.3829 9.8844 12.0849 -17.1966 8.5699 -7.5532 -5.3675 4.5984 12.8868 -19.7974 5.9987 9.3275 -19.894 6.3984 -11.6586 -10.3264 4.4603 9.8591 -18.9756 1.5019 11.932 -23.6738 4.6888 -13.5872 -38.6783 -24.2254 16.0464 15.5163 -40.5498 10.5594 22.7 -51.9634 0.0184 -0.0577 0.1066 -0.1769 3.2945 -0.9372 0.1356 -0.0037 -0.0169 30.7277 22.5791 -3.7415 0.1336 0.0018 -0.1531 -5.3071 4.8202 -22.7549 0.1086 -0.1548 -0.1038 3.1085 -50.7755 2.0726 19.3379 18.7239 -7.7946 25.8384 15.4027 -20.8716 30.3939 16.0086 -24.0506 -5.62 3.4787 -1.4699 12.7163 16.4899 -8.0397 10.507 15.5048 -7.0609 -8.9287 3.0217 -3.7585 11.5059 17.7666 -4.7167 8.0621 18.0416 -5.3169 -12.5307 8.8418 -4.1286 9.1727 17.5573 -1.0036 11.2737 22.5004 -4.2242 -9.0295 33.6512 21.3063 20.0309 -14.3956 39.8643 14.0502 -20.2544 51.6688 -0.0875 -0.0481 0.0042 -13.7453 -0.0089 -10.0329 -0.0345 -0.0278 -0.3338 24.6543 2.013 -3.0442 -16.2062 2.1646 -4.5073 -0.0033 -0.1012 -0.051 0 0 0 0.0875 -0.0481 0.0042 -15.4984 1.5402 4.349 0.0345 -0.0278 -0.3338 21.6416 -1.0143 2.4975 -10.2745 1.2234 1.4903 0.0033 -0.1012 -0.051 0 0 0 
0.1415 -0.0814 0.7406 4.3531 -0.9691 5.2216 0.0001 -0.0312 0.0787 -0.1404 -0.1478 -0.3881 0.0002 -0.001 0.1056 1.7486 0.3542 -0.4202 0 0 0 0 -0.0488 0.1665 15.8493 -0.5592 -1.7198 -24.6971 -1.9925 -1.1005 0 -0.0436 0.0633 -0.0001 0 0 2.0402 0.1041 5.8389 -0.0001 0 0 1.9846 0.1133 6.5379 0 0 0 -0.0184 -0.0577 0.1066 0.5883 -4.6151 -3.4913 -0.1356 -0.0037 -0.0169 27.4425 -15.3091 8.0927 -0.1336 0.0018 -0.1531 -1.0039 1.8866 23.4067 -0.1086 -0.1548 -0.1038 2.6965 30.6493 -15.3039 2.889 -8.3198 -9.4501 8.1912 -8.2992 4.1252 13.4847 -10.3399 7.8049 -3.9244 -5.8423 2.8867 14.5745 -18.3829 9.8844 12.0849 -17.1966 8.5698 -7.5532 -5.3675 4.5984 12.8868 -19.7974 5.9988 9.3274 -19.894 6.3983 -11.6586 -10.3264 4.4604 9.8592 -18.9756 1.5018 11.932 -23.6738 4.6888 -13.5872 -38.6783 -24.2254 16.0464 15.5163 -40.5498 10.5594 22.7 -51.9633 0.0184 -0.0577 0.1066 -0.1769 3.2946 -0.9372 0.1356 -0.0037 -0.0169 30.7277 22.5791 -3.7415 0.1336 0.0018 -0.1531 -5.3071 4.8202 -22.7549 0.1086 -0.1548 -0.1038 3.1086 -50.7754 2.0726 19.3378 18.7239 -7.7946 25.8384 15.4027 -20.8717 30.3939 16.0086 -24.0506 -5.62 3.4787 -1.4699 12.7163 16.4899 -8.0397 10.5069 15.5048 -7.0609 -8.9287 3.0217 -3.7585 11.5059 17.7666 -4.7167 8.0621 18.0416 -5.3169 -12.5307 8.8418 -4.1286 9.1727 17.5573 -1.0037 11.2737 22.5004 -4.2241 -9.0295 33.6512 21.3062 20.0309 -14.3956 39.8643 14.0502 -20.2544 51.6688 -0.0875 -0.0481 0.0042 -13.7453 -0.0089 -10.0329 -0.0345 -0.0278 -0.3338 24.6543 2.013 -3.0442 -16.2062 2.1646 -4.5073 -0.0033 -0.1012 -0.051 0 0 0 0.0875 -0.0481 0.0042 -15.4984 1.5402 4.349 0.0345 -0.0278 -0.3338 21.6416 -1.0143 2.4975 -10.2745 1.2234 1.4903 0.0033 -0.1012 -0.051 0 0 0 
0.1413 -0.0813 0.7405 4.2209 -0.9519 5.2253 0.0001 -0.0313 0.0786 -0.1224 -0.1438 -0.3916 0.0002 -0.001 0.1054 1.7085 0.3568 -0.4246 0 0 0 0 -0.0487 0.1664 15.8627 -0.566 -1.7405 -24.2205 -1.9485 -1.1016 0 -0.0436 0.0633 -0.0001 0 0 1.9573 0.0999 5.8386 -0.0001 0 0 1.9039 0.1088 6.5368 -0.0001 0 0 -0.0184 -0.0577 0.1066 0.5884 -4.6151 -3.4923 -0.1356 -0.0037 -0.0169 27.4872 -15.2708 8.1342 -0.1336 0.0018 -0.1531 -0.9848 1.88 23.4303 -0.1086 -0.1548 -0.1038 2.817 30.5427 -15.3806 2.8508 -8.274 -9.5047 8.2162 -8.3144 4.148 13.3758 -10.2835 7.7047 -3.9493 -5.7989 2.853 14.5833 -18.3907 9.8941 11.9846 -17.1021 8.4594 -7.5862 -5.3109 4.5706 12.8743 -19.7813 5.9853 9.2379 -19.7771 6.3054 -11.6859 -10.2788 4.4426 9.8307 -18.925 1.4733 11.8478 -23.5467 4.6047 -13.5872 -38.6783 -24.2254 16.0465 15.5162 -40.5498 10.5594 22.7 -51.9633 0.0184 -0.0577 0.1066 -0.1759 3.2945 -0.9298 0.1356 -0.0037 -0.0169 30.7741 22.557 -3.708 0.1336 0.0018 -0.1531 -5.3367 4.8195 -22.8184 0.1086 -0.1548 -0.1038 3.3397 -50.7002 2.2417 18.7637 18.4532 -7.1825 25.3251 15.2665 -20.3937 29.8176 15.8901 -23.5119 -5.6484 3.4293 -1.4337 12.7145 16.4882 -8.0377 10.4402 15.4378 -6.9872 -8.9576 2.9708 -3.735 11.4947 17.7513 -4.7046 7.9997 17.9556 -5.2522 -12.5595 8.7928 -4.1112 9.1421 17.5012 -0.9732 11.2098 22.4013 -4.1606 -9.0294 33.6512 21.3063 20.0308 -14.3956 39.8643 14.0502 -20.2544 51.6688 -0.0875 -0.0481 0.0042 -13.6215 -0.0511 -10.0391 -0.0345 -0.0278 -0.3338 24.6415 2.011 -3.0422 -16.1878 2.1827 -4.5133 -0.0033 -0.1012 -0.051 0 0 0 0.0875 -0.0481 0.0042 -15.395 1.5011 4.3386 0.0345 -0.0278 -0.3338 21.6641 -1.0187 2.5008 -10.2656 1.2395 1.4844 0.0033 -0.1012 -0.051 0 0 0 
0.1412 -0.0809 0.7404 4.1408 -0.9331 5.2653 0.0001 -0.0314 0.0785 -0.1202 -0.1411 -0.3998 0.0002 -0.001 0.1054 1.6912 0.3676 -0.4339 0 0 0 0 -0.0486 0.1664 15.8695 -0.5681 -1.7314 -23.9365 -1.97 -1.0729 0 -0.0436 0.0633 -0.0001 0 0 1.9123 0.0972 5.8158 -0.0001 0 0 1.8604 0.1059 6.5143 -0.0001 0 0 -0.0184 -0.0576 0.1065 0.5904 -4.6152 -3.5028 -0.1356 -0.0037 -0.0169 27.5446 -15.2053 8.156 -0.1336 0.0018 -0.1531 -0.9264 1.8795 23.3906 -0.1086 -0.1548 -0.1038 2.8513 30.4614 -15.3927 2.8994 -8.238 -9.5521 8.2229 -8.3185 4.1542 13.3441 -10.267 7.6755 -3.9046 -5.7614 2.8231 14.5852 -18.3924 9.8962 11.9551 -17.0743 8.427 -7.5796 -5.2866 4.5559 12.8702 -19.7759 5.9808 9.2117 -19.7427 6.2781 -11.6935 -10.2639 4.4371 9.822 -18.9097 1.4647 11.8231 -23.5094 4.5801 -13.5872 -38.6783 -24.2253 16.0464 15.5163 -40.5498 10.5595 22.7 -51.9633 0.0184 -0.0576 0.1065 -0.1765 3.2945 -0.9302 0.1356 -0.0037 -0.0169 30.8094 22.6129 -3.712 0.1336 0.0018 -0.1531 -5.3241 4.808 -22.8452 0.1086 -0.1548 -0.1038 3.4854 -50.7083 2.366 18.7569 18.417 -7.1195 25.2983 15.2593 -20.3687 29.7746 15.881 -23.4717 -5.6093 3.3888 -1.4014 12.711 16.4849 -8.0339 10.4183 15.4158 -6.9631 -8.955 2.9468 -3.7214 11.4892 17.7436 -4.6986 7.9797 17.9279 -5.2314 -12.5747 8.7787 -4.1063 9.1321 17.4829 -0.9632 11.1902 22.3706 -4.1411 -9.0294 33.6511 21.3062 20.0308 -14.3956 39.8643 14.0502 -20.2544 51.6688 -0.0875 -0.0481 0.0042 -13.5431 -0.0744 -10.074 -0.0345 -0.0278 -0.3338 24.5942 2.0059 -3.0351 -16.1435 2.2092 -4.5297 -0.0033 -0.1012 -0.051 0 0 0 0.0875 -0.0481 0.0042 -15.355 1.4849 4.2917 0.0345 -0.0278 -0.3338 21.6821 -1.0195 2.5031 -10.2418 1.2404 1.4685 0.0033 -0.1012 -0.051 0 0 0 
